<svg version="1.1" id="Layer_1" xmlns="http://www.w3.org/2000/svg" xmlns:xlink="http://www.w3.org/1999/xlink" x="0px" y="0px" viewBox="0 0 24 24" style="enable-background:new 0 0 122.88 101.57" xml:space="preserve"><g><path fill="#0aa8a7" d="M12 0C5.373 0 0 5.373 0 12c0 5.235 3.321 9.669 7.938 11.307-.11-.946-.21-2.4.043-3.43.23-.964 1.48-6.144 1.48-6.144s-.377-.756-.377-1.872c0-1.753 1.017-3.06 2.284-3.06 1.077 0 1.595.809 1.595 1.779 0 1.084-.691 2.704-1.047 4.206-.297 1.262.627 2.292 1.862 2.292 2.234 0 3.945-2.356 3.945-5.74 0-3-2.158-5.086-5.241-5.086-3.571 0-5.67 2.677-5.67 5.439 0 1.083.414 2.247.932 2.875.103.125.118.235.087.36-.096.396-.318 1.262-.361 1.44-.056.23-.185.277-.427.168-1.594-.734-2.587-3.043-2.587-4.9 0-3.982 2.896-7.633 8.358-7.633 4.384 0 7.798 3.128 7.798 7.317 0 4.356-2.748 7.853-6.558 7.853-1.281 0-2.484-.665-2.898-1.441l-.791 3.01c-.287 1.095-1.068 2.472-1.591 3.308C9.36 23.698 10.65 24 12 24c6.627 0 12-5.373 12-12S18.627 0 12 0z"/></g></svg>